<svg preserveAspectRatio="none" width="100%" height="100%" overflow="visible" style="display: block;" viewBox="0 0 51.423 52.0278" fill="none" xmlns="http://www.w3.org/2000/svg">
<path id="Vector" d="M43.7696 6.28625C50.9781 12.0884 53.1894 21.7587 49.9994 29.9058C48.3566 34.1008 44.8965 37.2567 43.2071 41.512C42.3055 43.7839 41.7654 46.1617 41.607 48.567L39.1886 48.9341L33.6858 28.0211L33.8868 27.2833C36.3336 25.625 40.8354 23.9612 41.1887 20.8857C41.5867 17.4267 37.5276 15.0379 34.0939 16.6962C31.0501 18.1664 31.0602 23.2051 30.847 25.9208L23.074 27.3673C21.078 25.2214 19.2098 20.8985 15.701 20.6465C11.7394 20.3616 9.21335 24.1932 11.2317 27.2339C13.0328 29.946 18.4768 29.4858 21.482 30.1615L26.9991 51.679L24.6985 52.0278C22.4506 48.8775 19.6708 46.0595 16.2188 43.9355C10.6672 40.5185 7.01626 39.4282 3.40997 33.7228C-10.6314 11.5113 21.8272 -11.3723 43.7696 6.28625Z" fill="var(--fill-0, #FB603D)"/>
</svg>
