<svg preserveAspectRatio="none" width="100%" height="100%" overflow="visible" style="display: block;" viewBox="0 0 57.9241 73.1778" fill="none" xmlns="http://www.w3.org/2000/svg">
<path id="Vector" d="M11.8407 4.84552C25.7291 16.1012 39.5267 27.4786 53.292 38.8725C54.2304 39.649 57.7237 42.0096 57.9054 42.9135C58.0325 43.541 57.4957 44.5467 56.8439 44.8049L38.2432 49.3152C38.0374 49.5643 38.7134 50.9483 38.8688 51.3248C40.8627 56.1606 43.6355 60.8818 45.4357 65.7921C45.5507 66.7306 44.6547 67.0779 43.9564 67.5526L28.7603 73.1431C27.9793 73.2886 27.2467 72.9649 26.8108 72.3757L19.2854 56.4188L2.78558 65.0083C0.894636 65.5212 -0.0276233 64.7646 0.000629788 63.0587C0.0672264 59.0395 0.416356 54.9057 0.614128 50.8665C1.27202 37.4085 2.07925 23.9341 2.84007 10.4979C3.00151 7.63351 2.74723 4.01076 3.29212 1.26641C3.56052 -0.0775722 4.72899 -0.18305 6.01854 0.178861C7.94379 1.74654 9.9094 3.2833 11.8387 4.84552H11.8407ZM15.0696 12.4838C13.0011 10.8034 10.9205 9.12844 8.84385 7.45164C7.90746 7.0479 7.05987 7.68625 6.92668 8.54101C6.23851 23.7031 5.27185 38.8306 4.66643 53.9709C4.6079 55.4531 3.38898 59.7979 6.46454 58.8631L21.2954 51.1502L29.0327 67.8254C29.2729 68.2382 29.9752 68.602 30.4978 68.531C33.1678 67.3253 36.6893 66.5924 39.2442 65.3066C39.7265 65.0647 40.2088 64.9301 40.1947 64.3318L32.5078 46.78L49.0541 42.8608C51.6816 41.9296 48.7352 39.9655 47.6475 39.0471C36.9819 30.0411 25.9249 21.2988 15.0696 12.482V12.4838Z" fill="var(--fill-0, #B283D2)"/>
</svg>
