<svg preserveAspectRatio="none" width="100%" height="100%" overflow="visible" style="display: block;" viewBox="0 0 120.153 117.236" fill="none" xmlns="http://www.w3.org/2000/svg">
<g id="Frame 117">
<path id="Union" d="M12.9267 39.3139C18.1509 39.2243 23.5387 42.5054 25.5976 47.2406C27.3356 51.2421 25.8567 54.4522 30.4492 57.2299C35.981 60.5744 38.0893 56.5862 42.7079 55.9711C55.2448 54.3022 63.3589 67.787 55.3915 77.3568C52.4849 80.8485 48.1151 80.8777 47.997 86.8041C47.8824 92.6383 53.2482 93.4237 55.6083 97.9604C61.4969 109.286 49.349 121.384 37.6533 115.854C29.5977 112.044 27.7905 100.847 34.1113 94.6537C36.6743 92.1451 39.745 92.126 40.4062 87.6791C41.0215 83.5494 38.2067 76.8761 33.3163 79.7787C30.9432 81.1884 31.9187 83.1046 31.6503 85.1967C29.8824 98.9215 11.0543 101.721 5.73822 89.102C1.39446 78.7888 11.3289 68.5557 22.0917 71.4936C24.9428 72.2721 27.7613 75.4949 30.6484 72.6791C33.8497 69.5586 29.6729 64.7177 26.3144 63.5131C20.9592 61.594 18.3897 65.8253 12.8906 65.6908C-4.36994 65.2743 -4.2356 39.6089 12.9267 39.3109V39.3139ZM106.872 39.3168C125.268 39.1118 124.702 68.132 104.247 65.4184C99.9425 64.8481 98.8424 61.6349 93.6738 63.5668C90.3448 64.81 86.2406 69.99 89.7558 72.8734C92.8 75.3724 95.1442 72.31 98.1786 71.4994C110.853 68.123 120.702 82.2613 112.349 92.4174C105.936 100.215 92.7015 98.0301 89.3398 88.6557C88.0929 85.1796 89.8275 81.2103 86.2138 79.5443C82.2171 77.7023 79.4904 82.7383 79.5165 86.1664C79.5624 91.9429 83.6643 92.0715 86.6562 95.4516C92.5741 102.141 90.0924 112.595 81.8535 116.078C69.0252 121.501 57.2976 106.652 66.0341 95.7875C69.1241 91.9465 72.4818 92.2825 71.9286 85.8334C71.5751 81.7037 69.3982 81.4153 66.8515 79.2719C56.0334 70.1825 63.4838 54.1062 77.5624 55.974C82.3971 56.6148 83.9224 60.5546 89.7685 57.1811C93.8699 54.8135 92.9602 52.0522 94.1679 48.352C95.8962 43.0657 101.203 39.3807 106.872 39.3197V39.3168ZM55.8896 0.639069C69.6998 -3.44239 79.4377 12.9899 69.4736 22.5854C68.3115 23.7067 65.0251 25.2037 64.4785 25.8637L64.4824 25.8568C63.2778 27.3082 63.8991 30.4901 65.5849 31.4897C69.9418 34.0655 76.3085 30.1884 77.0712 25.5268C77.225 24.5786 77.0357 23.6369 77.1894 22.7592C79.2189 11.1773 94.5515 7.42838 101.511 17.1488C108.807 27.3402 99.0652 40.4661 86.7607 37.352C85.2714 36.9739 83.3566 35.7793 81.9033 35.7631C79.5104 35.7375 76.2796 37.5225 74.8622 39.3871C72.9736 41.8765 73.7422 44.8844 72.7177 47.8607C68.6817 59.5899 50.8983 59.292 47.2646 47.4926C45.9192 43.1258 47.6994 39.6398 42.3476 36.9262C37.8009 34.6194 36.9756 36.554 32.9755 37.4799C21.3224 40.1709 11.9672 28.0447 18.1669 17.8598C24.1474 8.03706 39.8299 10.3182 42.6191 21.2846C43.5847 25.0811 42.4131 27.789 46.2167 30.5795C48.8846 32.5369 55.405 33.3057 56.122 29.3813C56.8847 25.1938 54.0823 25.3406 51.6142 23.3734C43.4966 16.908 45.8306 3.60899 55.8896 0.639069Z" fill="var(--fill-0, #B32A08)"/>
</g>
</svg>
