<svg preserveAspectRatio="none" width="100%" height="100%" overflow="visible" style="display: block;" viewBox="0 0 28.7337 25.4124" fill="none" xmlns="http://www.w3.org/2000/svg">
<path id="Union" d="M7.28315 0.141416C8.71159 -0.081053 10.6487 0.268144 12.1298 0.141416C14.0278 0.582457 14.232 3.29566 12.4228 4.01935C11.9302 4.21661 11.114 3.99362 11.0859 4.74884C11.0629 5.36185 11.6665 5.36548 12.0576 5.54669C13.9899 6.44129 13.5066 9.28906 11.3398 9.47442C10.7514 9.52489 9.50735 9.2346 9.86518 10.3201C10.0441 10.8616 10.5846 10.6907 10.9951 10.7381C13.54 11.0311 13.3009 14.5342 11.1103 14.7498C10.6807 14.7921 9.80867 14.6193 9.76069 15.2957C9.68501 16.3685 11.2979 15.8497 11.9999 16.1551C13.5356 16.8237 13.7236 18.9545 12.2695 19.8084C11.8102 20.0779 10.795 20.1221 11.1259 20.9295C11.3113 21.3817 11.9591 21.304 12.3427 21.4324C14.2803 22.0822 14.0221 25.0762 12.0712 25.3445C10.6279 25.5429 8.81389 25.231 7.331 25.3543C5.29081 25.0348 5.20362 21.9086 7.10053 21.4051C7.59025 21.2751 8.33037 21.4789 8.37397 20.7274C8.40494 20.1946 7.92022 20.0623 7.49702 20.0262C6.25181 19.9191 3.42849 20.288 2.45893 19.8465C0.963146 19.1646 0.932707 16.9558 2.38374 16.2303C2.97488 15.935 4.13872 16.2205 3.90229 15.1922C3.7452 14.5099 2.32219 14.8002 1.77143 14.743C-0.146603 14.5429 -0.632821 11.9887 0.937449 10.9988C1.73443 10.4966 2.56446 10.8636 3.41303 10.7215C4.1332 10.6011 4.17155 9.62894 3.47163 9.48712C3.23021 9.43838 2.9773 9.46286 2.70893 9.38946C0.949845 8.90591 0.805471 6.28397 2.55659 5.56427C3.6913 5.09811 6.41826 5.5668 7.78608 5.40411C8.4591 5.32385 8.52328 4.41471 7.96186 4.19415C7.70553 4.0938 7.35025 4.14732 7.02339 4.04181C5.11083 3.42449 5.41271 0.431728 7.28315 0.140439V0.141416ZM16.8525 0.0769628C17.8623 -0.0285508 19.954 -0.0204772 20.9736 0.0701269C23.544 0.29852 23.6925 3.71118 21.3027 4.12481C21.0045 4.17642 20.7482 4.05214 20.5136 4.31134C20.3153 4.52979 20.3106 4.99302 20.5048 5.21271C20.5799 5.29746 20.795 5.38901 20.915 5.40411C22.3084 5.57327 24.9115 5.10046 26.1054 5.54767C27.8423 6.19849 27.7413 8.73546 26.0654 9.34747C25.602 9.51664 24.6279 9.38915 24.7529 10.1639C24.8919 11.0219 26.2963 10.6766 26.9306 10.743C29.3585 10.9976 29.251 14.4403 27.1093 14.6922C26.5749 14.7547 25.683 14.6604 25.2294 14.7625C24.7761 14.8646 24.6121 15.5247 24.9873 15.8397C25.2768 16.0822 25.6718 15.9813 26.0371 16.1092C27.6857 16.6844 27.8619 19.0476 26.2763 19.824C25.2623 20.3204 22.5445 19.9259 21.2607 20.0262C20.7068 20.0698 20.2651 20.1753 20.3749 20.8533C20.4581 21.3693 20.9735 21.2853 21.3027 21.3592C23.7031 21.8971 23.437 25.0995 21.2539 25.3524C19.8043 25.5203 18.0532 25.2511 16.5722 25.3445C14.6049 24.9867 14.4522 22.0583 16.3017 21.4324C16.7822 21.2696 17.6951 21.4667 17.6162 20.6356C17.5646 20.0927 17.111 20.1396 16.7607 19.9959C15.018 19.2814 14.96 16.7625 16.7773 16.115C17.496 15.8597 19.0435 16.3886 18.8837 15.2342C18.7989 14.6248 18.0566 14.7872 17.6494 14.7488C15.4479 14.5413 15.3084 11.2745 17.2724 10.8192C17.875 10.6793 19.0039 10.944 18.8837 9.95978C18.7949 9.23609 17.7079 9.52723 17.1953 9.46759C15.4144 9.25978 14.7942 6.83215 16.2587 5.79083C16.6562 5.50831 17.3625 5.46445 17.5488 5.07403C17.6542 4.85335 17.6373 4.65937 17.5048 4.45587C17.1986 3.98607 16.6635 4.2216 16.1699 4.01349C14.3019 3.22544 14.7762 0.293236 16.8525 0.0769628Z" fill="var(--fill-0, #FF3300)"/>
</svg>
