<svg preserveAspectRatio="none" width="100%" height="100%" overflow="visible" style="display: block;" viewBox="0 0 17 17" fill="none" xmlns="http://www.w3.org/2000/svg">
<g id="Frame">
<path id="Vector" d="M14.8759 3.73386C15.1537 3.73391 15.4205 3.84402 15.6171 4.0405C15.8136 4.23699 15.9236 4.50384 15.9237 4.78171C15.9237 5.05958 15.8135 5.32636 15.6171 5.52292L15.4403 5.70065L15.4384 5.69772L7.11511 14.021C7.01797 14.1185 6.90332 14.1966 6.77625 14.2495C6.649 14.3023 6.51169 14.3296 6.3739 14.3296C6.23625 14.3295 6.09966 14.3023 5.97253 14.2495C5.87721 14.2099 5.78828 14.1566 5.70886 14.0913L5.63269 14.0219L1.91394 10.3032C1.81677 10.206 1.74001 10.0903 1.68738 9.96335C1.6347 9.83617 1.6073 9.69964 1.6073 9.56198C1.60731 9.42434 1.6347 9.28778 1.68738 9.16061C1.74002 9.03364 1.81677 8.91799 1.91394 8.82077C2.01128 8.72343 2.12758 8.64591 2.25476 8.59323C2.38169 8.54072 2.51778 8.51418 2.65515 8.51413C2.79271 8.51413 2.92942 8.54063 3.05652 8.59323C3.1836 8.64587 3.29907 8.72354 3.39636 8.82077L6.37488 11.7993L14.1346 4.0405C14.3312 3.84411 14.598 3.73386 14.8759 3.73386Z" fill="var(--fill-0, white)" stroke="var(--stroke-0, white)" stroke-width="0.5"/>
</g>
</svg>
