<svg preserveAspectRatio="none" width="100%" height="100%" overflow="visible" style="display: block;" viewBox="0 0 37.1214 42.3689" fill="none" xmlns="http://www.w3.org/2000/svg">
<path id="Vector" d="M37.1214 6.50819L11.5487 42.3688L0 35.6329L25.6092 0L37.1214 6.50819ZM27.1818 4.34184C26.5645 3.81163 25.5161 4.27806 25.1214 4.85199L4.16734 34.4614C4.06209 35.5691 5.7946 36.0501 6.48072 35.079C12.668 25.508 20.6403 16.3998 26.7102 6.82886C27.1717 6.10188 28.0784 5.11437 27.1818 4.34184ZM31.0172 7.24064C30.6326 7.34814 28.9487 9.80056 28.5662 10.3198C22.1077 19.1128 16.0419 28.1481 9.53285 36.9138C8.89732 38.4479 10.9516 39.2405 11.8159 37.8758L32.6991 8.37211C32.8023 7.51759 31.9077 6.9892 31.0172 7.24064Z" fill="var(--fill-0, #2DB571)"/>
</svg>
