<svg preserveAspectRatio="none" width="100%" height="100%" overflow="visible" style="display: block;" viewBox="0 0 51.9998 60.8511" fill="none" xmlns="http://www.w3.org/2000/svg">
<g id="Group 1">
<path id="Vector" d="M45.0512 53.0602C35.0185 63.2324 17.2184 63.5021 6.91132 53.5253C-1.17712 45.6927 -0.214308 27.0879 0.381046 16.5297C0.460116 15.1529 0.701969 11.7343 0.981041 10.618C2.43221 4.75283 10.3579 10.1157 13.5625 11.1529C16.9393 8.911 22.7673 0.185355 26.6929 0.00395861C28.9859 -0.0983678 30.372 1.80398 31.8046 3.28771C36.3441 7.97612 48.9582 22.432 50.8558 27.9577C53.6698 36.1438 51.1256 46.9067 45.0512 53.0648V53.0602ZM26.3161 25.6832C21.4882 30.1995 14.223 34.1391 15.9765 41.902C19.2277 56.3114 42.7069 50.3578 36.9069 35.3903C36.2046 33.581 29.1394 26.0088 27.4975 25.6832C27.0975 25.6042 26.7161 25.539 26.3161 25.6832Z" fill="var(--fill-0, #B62B08)"/>
<path id="Vector_2" d="M26.3163 25.6826C26.7163 25.5385 27.0977 25.6036 27.4977 25.6826C29.1349 26.0082 36.2047 33.5804 36.907 35.3897C42.7071 50.3573 19.2278 56.3108 15.9767 41.9014C14.2232 34.1385 21.4883 30.199 26.3163 25.6826Z" fill="var(--fill-0, #FF3300)"/>
</g>
</svg>
