<svg preserveAspectRatio="none" width="100%" height="100%" overflow="visible" style="display: block;" viewBox="0 0 14 14" fill="none" xmlns="http://www.w3.org/2000/svg">
<g id="Frame">
<path id="Vector" d="M7 12.8333C3.77834 12.8333 1.16667 10.2216 1.16667 7C1.16667 3.77834 3.77834 1.16667 7 1.16667C10.2216 1.16667 12.8333 3.77834 12.8333 7C12.8333 10.2216 10.2216 12.8333 7 12.8333ZM7 11.6667C9.57734 11.6667 11.6667 9.57734 11.6667 7C11.6667 4.42267 9.57734 2.33333 7 2.33333C4.42267 2.33333 2.33333 4.42267 2.33333 7C2.33333 9.57734 4.42267 11.6667 7 11.6667ZM7.58333 7H9.91667V8.16667H6.41667V4.08333H7.58333V7Z" fill="var(--fill-0, #1F1F1F)" fill-opacity="0.6"/>
</g>
</svg>
