<svg preserveAspectRatio="none" width="100%" height="100%" overflow="visible" style="display: block;" viewBox="0 0 56.2772 74.7298" fill="none" xmlns="http://www.w3.org/2000/svg">
<path id="Vector" d="M46.4013 50.5217C47.7696 50.8487 48.9464 51.7246 49.4985 52.9093C50.1353 54.2758 51.7574 60.5484 51.6264 61.913C51.4088 64.1753 49.2809 65.3473 46.9897 65.6344C47.8381 69.1214 48.9141 71.907 44.2049 73.2062C42.5847 73.6532 38.3913 74.5945 36.8054 74.7108C32.7531 75.0088 32.1183 71.7398 31.667 68.8979C28.5899 69.8283 25.9381 69.0651 24.8741 66.2122C24.199 64.4006 22.6615 58.7422 23.0907 57.0741C23.2721 56.3636 23.9169 55.8657 24.3945 55.3242C24.5053 54.939 22.5265 52.6258 22.1013 52.1788C17.6036 47.458 11.2501 45.879 6.68991 41.1818C-5.5699 28.5585 -0.201697 9.12104 16.4571 2.39234C41.3434 -7.65981 66.1976 15.8788 52.2592 37.4023C51.5055 38.567 50.5121 39.6137 49.7726 40.7929C47.8945 43.7784 46.7358 47.1001 46.4053 50.5217H46.4013ZM45.8915 8.65041C24.1164 -8.91723 -8.09682 13.8491 5.83954 35.9486C9.41835 41.6252 13.0435 42.71 18.5507 46.1098C21.9764 48.2249 24.733 51.0268 26.9658 54.1613L29.2489 53.8142L23.7739 32.4053C20.7915 31.7329 15.3891 32.1908 13.6017 29.4925C11.5987 26.467 14.1054 22.6566 18.0369 22.9382C21.521 23.189 23.3728 27.49 25.3537 29.6251L33.0675 28.186C33.279 25.4839 33.271 20.4706 36.2896 19.0078C39.6971 17.3579 43.7233 19.7347 43.3303 23.1762C42.9797 26.2362 38.5122 27.8916 36.084 29.5415L35.8846 30.2756L41.3455 51.0831L43.7454 50.7179C43.9026 48.3248 44.4386 45.9589 45.3333 43.6985C47.0079 39.4647 50.4436 36.3229 52.0738 32.1509C55.2395 24.0448 53.0451 14.4215 45.8915 8.65041ZM35.6971 26.7396C35.9994 26.8032 36.1707 26.676 36.4145 26.5706C37.0654 26.2871 39.8241 24.4864 40.219 24.0048C41.3777 22.593 40.3963 20.6814 38.4437 20.8013C35.9168 20.9576 36.2332 25.1605 35.6971 26.7396ZM21.9925 29.8304C22.3109 29.447 19.4958 26.1108 18.9598 25.7529C16.9649 24.4155 14.5891 26.5415 15.9493 28.2859C16.9971 29.6306 20.3643 29.3671 21.9925 29.8304ZM38.7158 51.8136L33.277 30.5573L26.4418 32.0273L31.8705 53.2727L38.7158 51.8154V51.8136ZM44.5132 52.9547L26.4862 56.8669C25.926 57.1086 25.662 57.5393 25.6116 58.0862C25.5572 58.6677 25.8837 60.8446 26.5325 60.9118L47.5942 56.4545C47.8562 56.3109 47.7413 56.1855 47.7091 55.9929C47.3907 54.005 47.0421 52.6549 44.5152 52.9547H44.5132ZM48.3902 58.7204L26.8307 63.2649C27.2096 64.744 27.2459 67.0354 29.5209 66.8827L47.7897 62.9924C49.8411 62.1928 48.7146 60.1795 48.3922 58.7204H48.3902ZM44.36 66.1723L34.48 68.2547C34.0065 68.5563 34.881 71.5854 35.2034 71.9797C35.5259 72.374 36.1022 72.3613 36.5737 72.3377C37.9198 72.265 42.3369 71.2238 43.7615 70.8113C46.4839 70.0245 44.4386 68.0003 44.36 66.1741V66.1723Z" fill="var(--fill-0, #191210)"/>
</svg>
