<svg preserveAspectRatio="none" width="100%" height="100%" overflow="visible" style="display: block;" viewBox="0 0 45.6556 61.151" fill="none" xmlns="http://www.w3.org/2000/svg">
<path id="Vector" d="M10.6715 5.14936C21.5078 13.9573 32.5456 22.6908 43.1926 31.6878C44.2764 32.6034 47.2197 34.5674 44.5968 35.4976L28.0793 39.4129L35.7528 56.9471C35.7669 57.5448 35.2834 57.6793 34.8039 57.9209C32.2515 59.2036 28.7361 59.9376 26.0728 61.1422C25.551 61.213 24.852 60.8496 24.6102 60.4372L16.8864 43.7787L2.08135 51.4839C-0.988844 52.4178 0.227953 48.0774 0.286375 46.5966C0.890745 31.4697 1.85371 16.3574 2.54269 1.21229C2.67565 0.358385 3.52177 -0.27932 4.45653 0.124016C6.5275 1.79913 8.60653 3.47243 10.6715 5.15117V5.14936ZM41.5789 33.7771L5.11731 3.98296L2.69983 48.3135L17.3215 40.8682L18.3671 40.9845L26.4898 58.2916L32.5114 56.2149L32.7169 55.8625L25.0414 38.7752C25.0635 38.4954 25.0776 38.1357 25.2448 37.8977C25.7021 37.24 39.7275 34.5038 41.5769 33.7771H41.5789Z" fill="var(--fill-0, #161218)"/>
</svg>
