<svg preserveAspectRatio="none" width="100%" height="100%" overflow="visible" style="display: block;" viewBox="0 0 55.0899 70.9525" fill="none" xmlns="http://www.w3.org/2000/svg">
<path id="Vector" d="M53.3201 4.50778C55.3774 6.69125 55.6194 9.0547 54.1591 11.6727L19.8451 59.4635L2.08202 70.7208C0.563267 71.2608 -0.110388 70.8699 0.0146617 69.4119C0.524945 63.4341 3.11064 56.5856 3.87909 50.5242L39.2157 1.65527C43.1629 -2.14261 50.3572 1.36075 53.3201 4.50596V4.50778ZM40.8091 3.36605L36.1359 9.75828L47.6586 16.3741C47.8724 16.3251 47.9531 16.1414 48.0862 16.0142C48.657 15.4706 51.9405 10.8309 52.2411 10.1255C53.1588 7.96934 52.3621 6.47126 50.4803 5.15318C47.7857 3.26424 43.895 0.715347 40.8071 3.36605H40.8091ZM45.3734 20.0284C45.3734 19.4721 46.5856 18.7376 46.2024 18.2958L34.6837 11.7454L33.768 13.3053L45.3734 20.0284ZM43.7336 21.6937L32.2613 15.1997L6.74112 50.7551L18.2497 57.4764L43.7336 21.6937ZM16.5333 58.9363L5.84762 53.1167L4.45191 59.6362L9.94401 62.7996L10.543 62.7287L16.5333 58.9363ZM3.02392 67.2975L8.06019 64.2995L4.03238 62.027L3.0219 67.2975H3.02392Z" fill="var(--fill-0, #101712)"/>
</svg>
