<svg preserveAspectRatio="none" width="100%" height="100%" overflow="visible" style="display: block;" viewBox="0 0 64.4697 82.0885" fill="none" xmlns="http://www.w3.org/2000/svg">
<path id="Vector" d="M59.0649 12.5786C65.8017 21.4815 66.2032 32.7683 60.4793 42.264C59.3877 44.0769 57.7858 45.8044 56.7951 47.6719C56.3533 48.5047 55.2072 51.0432 55.1709 51.8524C55.1447 52.4379 56.8254 53.8872 57.2511 54.6709C58.1086 56.2493 60.0172 63.552 60.0051 65.2795C59.995 66.8288 59.1154 68.8654 58.0642 70.091C57.705 70.5092 56.0324 71.7439 55.986 71.8657C55.8468 72.2385 56.2019 73.0695 56.1676 73.6459C55.8085 79.6412 49.3864 80.7068 44.1003 81.6924C38.3945 82.7561 34.6538 81.8615 32.3598 76.7409C29.7369 76.499 27.1745 75.0298 25.8611 72.9604C24.7251 71.1693 22.7317 63.5193 22.877 61.4718C22.9335 60.6662 23.2482 59.8879 23.4823 59.1169C21.2548 55.6583 17.0037 54.1981 13.5314 52.0688C-3.34994 41.7203 -4.60894 19.4358 10.729 7.38157C25.397 -4.14892 48.0447 -1.98684 59.0669 12.5786H59.0649ZM50.5385 54.2618C50.8694 50.8359 52.0295 47.5119 53.9099 44.5261C54.6524 43.3477 55.6451 42.3003 56.3997 41.1329C70.3535 19.594 45.4682 -3.96344 20.5527 6.09778C3.87311 12.8313 -1.50181 32.2846 10.7733 44.9152C15.3392 49.614 21.7028 51.196 26.2041 55.9202C26.6318 56.3675 28.6111 58.6823 28.5001 59.0678C28.0239 59.6097 27.3783 60.1098 27.1947 60.8189C26.767 62.4882 28.3044 68.1507 28.9803 69.9637C30.0456 72.8186 32.7008 73.5823 35.7817 72.6513C36.2336 75.4971 36.8692 78.7666 40.9266 78.4684C42.5144 78.352 46.7131 77.41 48.3353 76.9627C53.0504 75.6607 51.973 72.8749 51.1236 69.3854C53.4196 69.0981 55.5482 67.9253 55.7661 65.6613C55.8973 64.2957 54.2731 58.0204 53.6355 56.6512C53.0827 55.4656 51.9044 54.5891 50.5344 54.2618H50.5385Z" fill="var(--fill-0, #F8623F)"/>
</svg>
