<svg preserveAspectRatio="none" width="100%" height="100%" overflow="visible" style="display: block;" viewBox="0 0 63.9333 80.5317" fill="none" xmlns="http://www.w3.org/2000/svg">
<path id="Vector" d="M56.4386 2.36948C62.8708 5.9233 66.2514 10.8103 62.1281 17.4487C58.247 23.6979 52.8522 30.1526 48.523 36.1963C42.4864 44.6226 36.6133 53.2471 30.4092 61.6115C29.2063 63.2338 27.7552 65.4745 26.0861 66.6712C22.6571 69.1338 18.2432 71.4181 14.6143 73.6643C11.4356 75.6322 7.92787 78.3403 4.62802 80.0335C2.10521 81.3285 -0.278361 79.9826 0.026395 77.3418C0.865989 70.0414 3.58458 62.359 4.49481 54.9967C6.52114 49.4859 11.0824 44.4571 14.5942 39.5374C23.0567 27.6846 31.6464 15.6409 40.2663 3.75354C45.1707 -1.12979 50.5594 -0.873344 56.4366 2.37312L56.4386 2.36948ZM58.2086 8.04942C55.2458 4.90299 48.0447 1.39827 44.095 5.19763L8.73517 54.0855C7.96621 60.1492 5.37881 66.9986 4.8682 72.9804C4.74306 74.4373 5.41514 74.8301 6.93691 74.2899L24.7117 63.0283L59.0482 15.2189C60.5074 12.5999 60.2652 10.2356 58.2086 8.05124V8.04942Z" fill="var(--fill-0, #2EB772)"/>
</svg>
