<svg preserveAspectRatio="none" width="100%" height="100%" overflow="visible" style="display: block;" viewBox="0 0 91.5743 121.6" fill="none" xmlns="http://www.w3.org/2000/svg">
<path id="Vector" d="M75.5042 82.2089C77.7306 82.7411 79.6455 84.1662 80.544 86.0941C81.5801 88.3175 84.2197 98.5243 84.0065 100.745C83.6524 104.426 80.1898 106.333 76.4617 106.8C77.8421 112.474 79.5931 117.007 71.9301 119.121C69.2939 119.849 62.4704 121.38 59.8898 121.569C53.2959 122.054 52.263 116.735 51.5285 112.111C46.5215 113.625 42.2064 112.383 40.4751 107.741C39.3767 104.793 36.8748 95.5853 37.5733 92.871C37.8684 91.7149 38.9176 90.9047 39.6947 90.0236C39.8751 89.3968 36.6551 85.6328 35.9633 84.9054C28.6447 77.2237 18.3061 74.6543 10.8858 67.011C-9.06334 46.4703 -0.328201 14.8418 26.7789 3.89282C67.274 -12.464 107.717 25.838 85.0361 60.861C83.8098 62.7562 82.1933 64.4593 80.9899 66.3783C77.9339 71.2363 76.0485 76.6412 75.5108 82.2089H75.5042ZM74.6747 14.0759C39.2423 -14.5101 -13.1752 22.5353 9.50211 58.4955C15.3255 67.7325 21.2244 69.4977 30.1858 75.0298C35.76 78.4715 40.2456 83.0308 43.8787 88.1313L47.5937 87.5665L38.6848 52.7298C33.832 51.6358 25.0411 52.3809 22.1327 47.9901C18.8734 43.0671 22.9524 36.8667 29.3496 37.325C35.0189 37.7331 38.0323 44.7318 41.2555 48.206L53.8074 45.8642C54.1517 41.4675 54.1385 33.3098 59.0504 30.9295C64.5951 28.2448 71.1465 32.1123 70.5071 37.7124C69.9366 42.6916 62.6671 45.3852 58.716 48.07L58.3913 49.2645L67.2773 83.1225L71.1826 82.5282C71.4383 78.6341 72.3105 74.7844 73.7664 71.1062C76.4912 64.2169 82.0818 59.1046 84.7345 52.3159C89.8857 39.1257 86.3149 23.4667 74.6747 14.0759ZM58.0864 43.5106C58.5782 43.6141 58.857 43.4071 59.2537 43.2356C60.3128 42.7744 64.8017 39.8442 65.4444 39.0607C67.3298 36.7633 65.7329 33.6527 62.5556 33.8479C58.4438 34.1022 58.9586 40.9412 58.0864 43.5106ZM35.7862 48.5401C36.3043 47.9162 31.7236 42.4876 30.8514 41.9051C27.6052 39.7289 23.7393 43.1883 25.9526 46.0268C27.6577 48.2148 33.1368 47.7861 35.7862 48.5401ZM62.9983 84.3111L54.1484 49.7228L43.0262 52.1148L51.8597 86.6854L62.9983 84.3141V84.3111ZM72.4318 86.168L43.0983 92.5339C42.1867 92.9271 41.7572 93.6279 41.6752 94.5179C41.5867 95.4641 42.1179 99.0063 43.1737 99.1157L77.4454 91.8627C77.8716 91.6291 77.6847 91.4251 77.6323 91.1117C77.1142 87.877 76.5469 85.6801 72.4351 86.168H72.4318ZM78.7405 95.5498L43.659 102.945C44.2754 105.352 44.3345 109.08 48.0364 108.832L77.7634 102.501C81.1014 101.2 79.2685 97.9241 78.7438 95.5498H78.7405ZM72.1826 107.676L56.1059 111.064C55.3354 111.555 56.7584 116.484 57.2831 117.125C57.8077 117.767 58.7455 117.746 59.5127 117.708C61.7031 117.59 68.8906 115.895 71.2088 115.224C75.6387 113.944 72.3105 110.65 72.1826 107.678V107.676Z" fill="var(--fill-0, #191210)"/>
</svg>
