<svg preserveAspectRatio="none" width="100%" height="100%" overflow="visible" style="display: block;" viewBox="0 0 74.2907 99.505" fill="none" xmlns="http://www.w3.org/2000/svg">
<path id="Vector" d="M17.3646 8.37903C34.9975 22.7114 52.9582 36.9225 70.283 51.5623C72.0466 53.0523 76.8359 56.2481 72.5678 57.7618L45.6907 64.1327L58.177 92.6643C58.1999 93.637 57.4132 93.8557 56.633 94.2489C52.4796 96.3361 46.7594 97.5305 42.4257 99.4905C41.5767 99.6058 40.4392 99.0146 40.0458 98.3435L27.4776 71.2368L3.38678 83.7746C-1.60905 85.2942 0.370925 78.2315 0.46599 75.8221C1.44942 51.2076 3.01636 26.6167 4.13747 1.97264C4.35382 0.583164 5.73063 -0.454509 7.25167 0.201799C10.6216 2.92755 14.0045 5.65033 17.3646 8.38199V8.37903ZM67.6573 54.9621L8.32688 6.48107L4.39316 78.6158L28.1856 66.5007L29.887 66.6899L43.1043 94.852L52.9025 91.4729L53.2369 90.8994L40.7473 63.095C40.7834 62.6397 40.8063 62.0544 41.0784 61.6671C41.8225 60.5969 64.6447 56.1447 67.654 54.9621H67.6573Z" fill="var(--fill-0, #161218)"/>
</svg>
