<svg preserveAspectRatio="none" width="100%" height="100%" overflow="visible" style="display: block;" viewBox="0 0 89.6423 115.454" fill="none" xmlns="http://www.w3.org/2000/svg">
<path id="Vector" d="M86.7625 7.33506C90.1101 10.888 90.5039 14.7338 88.1278 18.9938L32.292 96.7591L3.38786 115.077C0.916548 115.956 -0.179623 115.32 0.0238575 112.947C0.854191 103.22 5.06164 92.076 6.31206 82.213L63.8118 2.69346C70.2346 -3.48646 81.9413 2.21421 86.7625 7.3321V7.33506ZM66.4046 5.47724L58.8003 15.8787L77.5501 26.644C77.8979 26.5641 78.0292 26.2653 78.2458 26.0582C79.1746 25.1737 84.5176 17.6241 85.0067 16.4763C86.4999 12.9677 85.2036 10.53 82.1415 8.38526C77.7568 5.31157 71.426 1.16401 66.4013 5.47724H66.4046ZM73.8316 32.5902C73.8316 31.685 75.8041 30.4898 75.1805 29.7709L56.4373 19.1121L54.9473 21.6504L73.8316 32.5902ZM71.1634 35.3L52.4956 24.7329L10.9692 82.5887L29.696 93.5256L71.1634 35.3ZM26.903 95.9012L9.51525 86.4316L7.24415 97.0401L16.1809 102.188L17.1556 102.072L26.903 95.9012ZM4.92052 109.506L13.1155 104.628L6.5615 100.93L4.91724 109.506H4.92052Z" fill="var(--fill-0, #101712)"/>
</svg>
