<svg preserveAspectRatio="none" width="100%" height="100%" overflow="visible" style="display: block;" viewBox="0 0 83.6755 84.6597" fill="none" xmlns="http://www.w3.org/2000/svg">
<path id="Vector" d="M71.2219 10.229C82.9516 19.6703 86.5498 35.4057 81.359 48.6628C78.6859 55.4889 73.0557 60.6241 70.3066 67.5483C68.8396 71.2452 67.9607 75.1144 67.703 79.0282L63.7677 79.6255L54.8135 45.5959L55.1406 44.3953C59.1221 41.697 66.4474 38.9897 67.0223 33.9852C67.6699 28.3567 61.0649 24.4697 55.4776 27.168C50.5247 29.5603 50.5412 37.7594 50.1943 42.1784L37.546 44.532C34.2981 41.0402 31.2582 34.006 25.5487 33.5959C19.1023 33.1324 14.992 39.3671 18.2763 44.3151C21.2071 48.7282 30.0655 47.9793 34.9556 49.0788L43.9329 84.0921L40.1893 84.6597C36.5317 79.5334 32.0083 74.948 26.3913 71.4918C17.3577 65.9317 11.4169 64.1575 5.54871 54.8738C-17.2994 18.7312 35.5173 -18.505 71.2219 10.229Z" fill="var(--fill-0, #FB603D)"/>
</svg>
