<svg preserveAspectRatio="none" width="100%" height="100%" overflow="visible" style="display: block;" viewBox="0 0 104.032 131.041" fill="none" xmlns="http://www.w3.org/2000/svg">
<path id="Vector" d="M91.8369 3.85561C102.303 9.6384 107.804 17.5905 101.095 28.3925C94.7795 38.5612 86.0011 49.0644 78.9567 58.8987C69.1339 72.6099 59.5772 86.6436 49.4818 100.254C47.5245 102.894 45.1632 106.54 42.4473 108.487C36.8676 112.495 29.6853 116.212 23.7805 119.867C18.608 123.069 12.9002 127.475 7.53072 130.231C3.42559 132.338 -0.45295 130.148 0.04295 125.851C1.40914 113.971 5.83283 101.471 7.31396 89.4906C10.6112 80.5235 18.0333 72.3405 23.7476 64.3352C37.5179 45.0484 51.495 25.4508 65.5214 6.10777C73.5018 -1.83839 82.2703 -1.4211 91.8336 3.86154L91.8369 3.85561ZM94.7171 13.098C89.896 7.97815 78.1783 2.27526 71.7514 8.45758L14.2139 88.0079C12.9626 97.8748 8.75241 109.02 7.92153 118.754C7.71792 121.124 8.81152 121.764 11.2877 120.885L40.2108 102.56L96.0833 24.7642C98.4577 20.5026 98.0636 16.6553 94.7171 13.101V13.098Z" fill="var(--fill-0, #2EB772)"/>
</svg>
