<svg preserveAspectRatio="none" width="100%" height="100%" overflow="visible" style="display: block;" viewBox="0 0 104.905 133.574" fill="none" xmlns="http://www.w3.org/2000/svg">
<path id="Vector" d="M96.1105 20.4678C107.073 34.9546 107.726 53.3205 98.4119 68.7719C96.6357 71.722 94.029 74.5329 92.417 77.5717C91.698 78.9269 89.8332 83.0575 89.7741 84.3742C89.7315 85.327 92.4663 87.6852 93.159 88.9605C94.5543 91.5289 97.66 103.412 97.6403 106.223C97.6239 108.744 96.1925 112.058 94.482 114.052C93.8977 114.733 91.176 116.742 91.1005 116.94C90.874 117.547 91.4518 118.899 91.396 119.837C90.8116 129.592 80.3616 131.326 71.76 132.93C62.4755 134.661 56.3887 133.205 52.6559 124.873C48.3879 124.479 44.2184 122.088 42.0811 118.721C40.2328 115.807 36.9891 103.359 37.2255 100.027C37.3174 98.7161 37.8296 97.4496 38.2104 96.1951C34.5859 90.5672 27.6685 88.1912 22.0183 84.7263C-5.45103 67.8872 -7.49966 31.6259 17.4582 12.0113C41.326 -6.75112 78.1784 -3.23298 96.1137 20.4678H96.1105ZM82.2362 88.2948C82.7747 82.7202 84.6624 77.3113 87.7222 72.4528C88.9304 70.5354 90.5457 68.8311 91.7735 66.9315C114.479 31.8833 73.9859 -6.44932 33.4434 9.9223C6.30232 20.8791 -2.44375 52.5335 17.5304 73.086C24.96 80.7318 35.3147 83.3061 42.6392 90.9933C43.3353 91.7212 46.5559 95.4879 46.3754 96.1152C45.6006 96.9969 44.55 97.8106 44.2512 98.9646C43.5552 101.681 46.0569 110.895 47.1567 113.845C48.8902 118.49 53.2107 119.733 58.2239 118.218C58.9593 122.849 59.9935 128.169 66.5957 127.684C69.1795 127.494 76.0116 125.962 78.6511 125.234C86.3237 123.115 84.5705 118.582 83.1883 112.904C86.9245 112.436 90.3881 110.528 90.7427 106.844C90.9561 104.622 88.3132 94.4108 87.2757 92.1828C86.3762 90.2536 84.4589 88.8274 82.2297 88.2948H82.2362Z" fill="var(--fill-0, #F8623F)"/>
</svg>
