<svg preserveAspectRatio="none" width="100%" height="100%" overflow="visible" style="display: block;" viewBox="0 0 94.2542 119.075" fill="none" xmlns="http://www.w3.org/2000/svg">
<path id="Vector" d="M19.2672 7.88463C41.8664 26.1998 64.3179 44.7132 86.7168 63.2533C88.2438 64.5169 93.9281 68.3581 94.2236 69.8289C94.4305 70.8498 93.557 72.4863 92.4963 72.9066L62.2294 80.2457C61.8944 80.6511 62.9945 82.9031 63.2474 83.5157C66.4918 91.3845 71.0037 99.0668 73.9329 107.057C74.1201 108.584 72.6621 109.149 71.5259 109.922L46.7987 119.019C45.5279 119.255 44.3359 118.729 43.6266 117.77L31.3812 91.8047L4.53269 105.782C1.45575 106.616 -0.0449487 105.385 0.00102479 102.609C0.109391 96.0691 0.677494 89.3426 0.999308 82.7699C2.06983 60.871 3.38336 38.9455 4.62136 17.0822C4.88407 12.4212 4.4703 6.5263 5.35693 2.0607C5.79368 -0.126225 7.69501 -0.29786 9.79337 0.291043C12.9261 2.84197 16.1246 5.34258 19.2639 7.88463H19.2672ZM24.5213 20.3137C21.1554 17.5793 17.7698 14.8538 14.3907 12.1253C12.867 11.4683 11.4878 12.5071 11.2711 13.8979C10.1513 38.5697 8.57836 63.1852 7.59321 87.8215C7.49798 90.2333 5.51456 97.3031 10.5191 95.782L34.6519 83.2316L47.242 110.365C47.6328 111.037 48.7756 111.629 49.6261 111.514C53.9706 109.552 59.7008 108.359 63.8582 106.267C64.643 105.873 65.4278 105.654 65.4048 104.681L52.8968 76.1204L79.8208 69.7431C84.0963 68.2279 79.302 65.0318 77.532 63.5374C60.177 48.8829 42.185 34.6575 24.5213 20.3108V20.3137Z" fill="var(--fill-0, #B283D2)"/>
</svg>
